<?xml version="1.0" standalone="no"?><!DOCTYPE svg PUBLIC "-//W3C//DTD SVG 1.1//EN" "http://www.w3.org/Graphics/SVG/1.1/DTD/svg11.dtd"><svg t="1748262354521" class="icon" viewBox="0 0 1024 1024" version="1.1" xmlns="http://www.w3.org/2000/svg" p-id="7212" xmlns:xlink="http://www.w3.org/1999/xlink" width="200" height="200"><path d="M928.993789 165.36646c12.720497 0 25.440994 12.720497 25.440994 31.801242 0 6.360248 0 171.726708-50.881988 356.173913-31.801242 108.124224-76.322981 203.52795-127.204969 273.490683-69.962733 95.403727-165.36646 159.006211-260.770186 197.167702C413.813665 992.198758 318.409938 922.236025 254.807453 826.832298c-50.881988-76.322981-95.403727-165.36646-127.204969-273.490683C76.720497 368.89441 76.720497 209.888199 76.720497 197.167702c0-12.720497 12.720497-25.440994 25.440994-31.801242 0 0 241.689441-25.440994 400.695652-152.645963 12.720497-6.360248 25.440994-6.360248 31.801242 0 152.645963 127.204969 387.975155 152.645963 394.335404 152.645963z m-267.130435 190.807453c19.080745 0 31.801242-12.720497 31.801242-31.801242s-12.720497-31.801242-31.801242-31.801242H356.571429c-19.080745 0-31.801242 12.720497-31.801243 31.801242s12.720497 31.801242 31.801243 31.801242h120.84472v419.776398c0 19.080745 12.720497 31.801242 31.801242 31.801242s31.801242-12.720497 31.801243-31.801242V356.173913h120.84472z" fill="#B1B1B1" p-id="7213"></path></svg>